<svg width="127" height="43" fill="none" xmlns="http://www.w3.org/2000/svg"><path d="M118 0H9a9 9 0 0 0-9 9v25a9 9 0 0 0 9 9h109a9 9 0 0 0 9-9V9a9 9 0 0 0-9-9Z" fill="#000"/><path d="M40.784 11.4c.763 0 1.395.272 1.896.816.507.539.76 1.2.76 1.984s-.253 1.448-.76 1.992c-.501.539-1.133.808-1.896.808H38.6v-5.6h2.184Zm0 4.896c.57 0 1.037-.2 1.4-.6.363-.4.544-.899.544-1.496s-.181-1.096-.544-1.496c-.363-.4-.83-.6-1.4-.6h-1.44v4.192h1.44Zm7.022.2a2.05 2.05 0 0 1-1.496.608 2.05 2.05 0 0 1-1.496-.608A2.033 2.033 0 0 1 44.206 15c0-.592.203-1.09.608-1.496a2.05 2.05 0 0 1 1.496-.608 2.05 2.05 0 0 1 1.496.608c.41.405.616.904.616 1.496a2.02 2.02 0 0 1-.616 1.496Zm-1.496-.072c.4 0 .736-.136 1.008-.408A1.38 1.38 0 0 0 47.726 15a1.38 1.38 0 0 0-.408-1.016 1.37 1.37 0 0 0-1.008-.408 1.36 1.36 0 0 0-1 .408A1.38 1.38 0 0 0 44.902 15c0 .405.136.744.408 1.016a1.36 1.36 0 0 0 1 .408ZM53.958 13h.728l-1.24 4h-.712l-.936-2.96-.936 2.96h-.712l-1.24-4h.728l.88 3.04.944-3.04h.672l.944 3.048.88-3.048Zm3.597-.104c.469 0 .845.15 1.128.448.282.293.424.693.424 1.2V17h-.696v-2.416c0-.325-.088-.576-.264-.752-.176-.181-.419-.272-.728-.272-.347 0-.627.11-.84.328-.214.213-.32.544-.32.992V17h-.696v-4h.696v.576c.282-.453.714-.68 1.296-.68ZM60.238 17v-5.84h.696V17h-.696Zm5.294-.504a2.05 2.05 0 0 1-1.496.608 2.05 2.05 0 0 1-1.496-.608A2.033 2.033 0 0 1 61.932 15c0-.592.203-1.09.608-1.496a2.05 2.05 0 0 1 1.496-.608 2.05 2.05 0 0 1 1.496.608c.41.405.616.904.616 1.496a2.02 2.02 0 0 1-.616 1.496Zm-1.496-.072c.4 0 .736-.136 1.008-.408A1.38 1.38 0 0 0 65.452 15a1.38 1.38 0 0 0-.408-1.016 1.37 1.37 0 0 0-1.008-.408 1.36 1.36 0 0 0-1 .408A1.38 1.38 0 0 0 62.628 15c0 .405.136.744.408 1.016a1.36 1.36 0 0 0 1 .408ZM70.441 13h.696v4h-.696v-.688c-.347.528-.851.792-1.512.792-.56 0-1.038-.203-1.432-.608A2.08 2.08 0 0 1 66.905 15c0-.587.197-1.083.592-1.488.394-.41.872-.616 1.432-.616.661 0 1.165.264 1.512.792V13Zm-1.424 3.432a1.38 1.38 0 0 0 1.016-.408c.272-.277.408-.619.408-1.024a1.38 1.38 0 0 0-.408-1.016 1.365 1.365 0 0 0-1.016-.416c-.4 0-.736.139-1.008.416A1.38 1.38 0 0 0 67.6 15c0 .405.136.747.408 1.024a1.37 1.37 0 0 0 1.008.408Zm6.646-5.032h.696V17h-.696v-.688c-.346.528-.85.792-1.512.792-.56 0-1.037-.203-1.432-.608A2.08 2.08 0 0 1 72.127 15c0-.587.198-1.083.592-1.488.395-.41.872-.616 1.432-.616.662 0 1.166.264 1.512.792V11.4Zm-1.424 5.032a1.38 1.38 0 0 0 1.016-.408c.272-.277.408-.619.408-1.024a1.38 1.38 0 0 0-.408-1.016 1.365 1.365 0 0 0-1.016-.416c-.4 0-.736.139-1.008.416A1.38 1.38 0 0 0 72.823 15c0 .405.136.747.408 1.024a1.37 1.37 0 0 0 1.008.408Zm8.87.064a2.05 2.05 0 0 1-1.495.608 2.05 2.05 0 0 1-1.496-.608A2.033 2.033 0 0 1 79.51 15c0-.592.202-1.09.608-1.496a2.05 2.05 0 0 1 1.496-.608 2.05 2.05 0 0 1 1.496.608c.41.405.616.904.616 1.496a2.02 2.02 0 0 1-.616 1.496Zm-1.495-.072c.4 0 .736-.136 1.008-.408A1.38 1.38 0 0 0 83.03 15a1.38 1.38 0 0 0-.408-1.016 1.37 1.37 0 0 0-1.008-.408 1.36 1.36 0 0 0-1 .408A1.38 1.38 0 0 0 80.206 15c0 .405.136.744.408 1.016a1.36 1.36 0 0 0 1 .408Zm5.084-3.528c.47 0 .846.15 1.128.448.283.293.424.693.424 1.2V17h-.696v-2.416c0-.325-.088-.576-.264-.752-.176-.181-.419-.272-.728-.272-.346 0-.626.11-.84.328-.213.213-.32.544-.32.992V17h-.696v-4h.696v.576c.283-.453.715-.68 1.296-.68Zm7.02.776h-1.064v2.168c0 .197.037.339.112.424.08.08.2.123.36.128.16 0 .357-.005.592-.016V17c-.608.08-1.054.032-1.336-.144-.283-.181-.424-.52-.424-1.016v-2.168h-.792V13h.792v-.912l.696-.208V13h1.064v.672Zm2.976-.776c.47 0 .845.15 1.128.448.282.293.424.693.424 1.2V17h-.696v-2.416c0-.325-.088-.576-.264-.752-.176-.181-.419-.272-.728-.272-.347 0-.627.11-.84.328-.214.213-.32.544-.32.992V17h-.696v-5.6h.696v2.176c.282-.453.714-.68 1.296-.68Zm3.171 2.424c.07.357.232.635.488.832.262.197.582.296.96.296.528 0 .912-.195 1.152-.584l.592.336c-.389.603-.976.904-1.76.904-.634 0-1.152-.197-1.552-.592-.394-.4-.592-.904-.592-1.512 0-.603.195-1.104.584-1.504.39-.4.894-.6 1.512-.6.587 0 1.064.208 1.432.624.374.41.56.907.56 1.488 0 .101-.008.205-.024.312h-3.352Zm1.384-1.768c-.373 0-.682.107-.928.32a1.352 1.352 0 0 0-.456.84h2.672c-.058-.379-.208-.667-.448-.864a1.283 1.283 0 0 0-.84-.296ZM45.416 32l-.784-2.256h-4.768L39.08 32h-2l4.064-11.2h2.208L47.4 32h-1.984Zm-4.944-3.984h3.552l-1.776-5.056-1.776 5.056Zm12.868-4.224c1.099 0 2.038.41 2.816 1.232.779.81 1.168 1.803 1.168 2.976 0 1.184-.389 2.181-1.168 2.992-.778.81-1.717 1.216-2.816 1.216-1.216 0-2.149-.448-2.8-1.344V35.2h-1.728V24h1.728v1.152c.651-.907 1.584-1.36 2.8-1.36Zm-2.08 6.048c.48.48 1.083.72 1.808.72.726 0 1.328-.24 1.808-.72.48-.49.72-1.104.72-1.84s-.24-1.344-.72-1.824c-.48-.49-1.082-.736-1.808-.736-.725 0-1.328.245-1.808.736-.48.48-.72 1.088-.72 1.824s.24 1.35.72 1.84Zm12.479-6.048c1.098 0 2.037.41 2.816 1.232.778.81 1.167 1.803 1.167 2.976 0 1.184-.389 2.181-1.167 2.992-.78.81-1.718 1.216-2.817 1.216-1.215 0-2.149-.448-2.8-1.344V35.2h-1.727V24h1.727v1.152c.651-.907 1.584-1.36 2.8-1.36Zm-2.08 6.048c.48.48 1.082.72 1.808.72.725 0 1.328-.24 1.808-.72.48-.49.72-1.104.72-1.84s-.24-1.344-.72-1.824c-.48-.49-1.083-.736-1.809-.736-.725 0-1.328.245-1.808.736-.48.48-.72 1.088-.72 1.824s.24 1.35.72 1.84Zm16.11 2.368c-1.078 0-1.995-.245-2.752-.736a3.882 3.882 0 0 1-1.568-2.016l1.584-.928c.448 1.259 1.376 1.888 2.784 1.888.693 0 1.21-.133 1.552-.4.352-.277.528-.635.528-1.072 0-.459-.187-.805-.56-1.04-.374-.245-1.035-.512-1.984-.8-.534-.16-.966-.31-1.296-.448A6.593 6.593 0 0 1 75 26.08a2.467 2.467 0 0 1-.816-.944c-.182-.373-.272-.81-.272-1.312 0-.992.352-1.776 1.056-2.352.704-.587 1.552-.88 2.544-.88.896 0 1.68.219 2.352.656.672.437 1.189 1.04 1.552 1.808l-1.552.896c-.47-1.045-1.254-1.568-2.352-1.568-.534 0-.96.128-1.28.384-.32.245-.48.581-.48 1.008 0 .416.16.747.48.992.33.235.922.485 1.776.752.426.139.736.245.928.32.202.064.48.17.832.32.362.15.634.299.816.448.181.15.373.336.576.56.213.224.362.48.448.768.085.288.128.613.128.976 0 1.013-.368 1.819-1.104 2.416-.726.587-1.68.88-2.864.88Zm9.99-6.544h-1.984v3.84c0 .33.075.57.224.72.15.139.369.219.657.24.298.01.666.005 1.103-.016V32c-1.322.16-2.272.048-2.847-.336-.577-.395-.865-1.115-.865-2.16v-3.84h-1.471V24h1.472v-1.728l1.727-.512V24h1.984v1.664Zm5.336 6.544c-1.174 0-2.171-.405-2.992-1.216-.822-.81-1.232-1.808-1.232-2.992s.41-2.181 1.232-2.992c.821-.81 1.818-1.216 2.992-1.216 1.184 0 2.181.405 2.992 1.216.821.81 1.232 1.808 1.232 2.992s-.411 2.181-1.232 2.992c-.811.81-1.808 1.216-2.992 1.216Zm-1.776-2.4c.48.48 1.072.72 1.776.72s1.296-.24 1.776-.72.72-1.083.72-1.808c0-.725-.24-1.328-.72-1.808s-1.072-.72-1.776-.72-1.296.24-1.776.72-.72 1.083-.72 1.808c0 .725.24 1.328.72 1.808Zm9.61-4.464c.437-.992 1.259-1.488 2.464-1.488v1.872c-.661-.043-1.237.117-1.728.48-.491.352-.736.939-.736 1.76V32h-1.728v-8h1.728v1.344Zm5.046 3.392c.128.608.421 1.077.88 1.408.459.32 1.019.48 1.68.48.917 0 1.605-.33 2.064-.992l1.424.832c-.789 1.163-1.957 1.744-3.504 1.744-1.301 0-2.352-.395-3.152-1.184-.8-.8-1.2-1.808-1.2-3.024 0-1.195.395-2.192 1.184-2.992.789-.81 1.803-1.216 3.04-1.216 1.173 0 2.133.41 2.88 1.232.757.821 1.136 1.819 1.136 2.992a5.3 5.3 0 0 1-.064.72h-6.368Zm-.016-1.408h4.704c-.117-.65-.389-1.141-.816-1.472a2.295 2.295 0 0 0-1.472-.496c-.64 0-1.173.176-1.6.528-.427.352-.699.832-.816 1.44Z" fill="#fff"/><path fill-rule="evenodd" clip-rule="evenodd" d="M27.391 10a4.904 4.904 0 0 1-1.132 3.527 4.185 4.185 0 0 1-3.289 1.546 4.661 4.661 0 0 1 1.162-3.396c.836-.947 2-1.545 3.26-1.677Zm2.298 9.296a4.978 4.978 0 0 0-.655 2.404c.001.948.283 1.875.81 2.666A4.853 4.853 0 0 0 32 26.144a11.05 11.05 0 0 1-1.543 3.124c-.908 1.352-1.861 2.672-3.373 2.697-.72.016-1.205-.19-1.71-.404-.528-.223-1.078-.456-1.939-.456-.912 0-1.487.24-2.04.472-.48.2-.943.395-1.596.422-1.44.053-2.541-1.443-3.483-2.782-1.882-2.734-3.348-7.706-1.383-11.089a5.382 5.382 0 0 1 1.907-1.973 5.423 5.423 0 0 1 2.638-.783c.816-.017 1.6.296 2.287.57.526.21.995.398 1.379.398.337 0 .793-.18 1.325-.39.837-.33 1.86-.734 2.904-.625.8.025 1.583.235 2.287.613.704.379 1.31.915 1.768 1.567a5.013 5.013 0 0 0-1.74 1.791Z" fill="#fff"/></svg>