<svg width="145" height="43" fill="none" xmlns="http://www.w3.org/2000/svg"><path d="M136 0H9a9 9 0 0 0-9 9v25a9 9 0 0 0 9 9h127a9 9 0 0 0 9-9V9a9 9 0 0 0-9-9Z" fill="#000"/><path d="M40.784 11.4c.763 0 1.395.272 1.896.816.507.539.76 1.2.76 1.984s-.253 1.448-.76 1.992c-.501.539-1.133.808-1.896.808H38.6v-5.6h2.184Zm0 4.896c.57 0 1.037-.2 1.4-.6.363-.4.544-.899.544-1.496s-.181-1.096-.544-1.496c-.363-.4-.83-.6-1.4-.6h-1.44v4.192h1.44Zm7.022.2a2.05 2.05 0 0 1-1.496.608 2.05 2.05 0 0 1-1.496-.608A2.033 2.033 0 0 1 44.206 15c0-.592.203-1.09.608-1.496a2.05 2.05 0 0 1 1.496-.608 2.05 2.05 0 0 1 1.496.608c.41.405.616.904.616 1.496a2.02 2.02 0 0 1-.616 1.496Zm-1.496-.072c.4 0 .736-.136 1.008-.408A1.38 1.38 0 0 0 47.726 15a1.38 1.38 0 0 0-.408-1.016 1.37 1.37 0 0 0-1.008-.408 1.36 1.36 0 0 0-1 .408A1.38 1.38 0 0 0 44.902 15c0 .405.136.744.408 1.016a1.36 1.36 0 0 0 1 .408ZM53.958 13h.728l-1.24 4h-.712l-.936-2.96-.936 2.96h-.712l-1.24-4h.728l.88 3.04.944-3.04h.672l.944 3.048.88-3.048Zm3.597-.104c.469 0 .845.15 1.128.448.282.293.424.693.424 1.2V17h-.696v-2.416c0-.325-.088-.576-.264-.752-.176-.181-.419-.272-.728-.272-.347 0-.627.11-.84.328-.214.213-.32.544-.32.992V17h-.696v-4h.696v.576c.282-.453.714-.68 1.296-.68ZM60.238 17v-5.84h.696V17h-.696Zm5.294-.504a2.05 2.05 0 0 1-1.496.608 2.05 2.05 0 0 1-1.496-.608A2.033 2.033 0 0 1 61.932 15c0-.592.203-1.09.608-1.496a2.05 2.05 0 0 1 1.496-.608 2.05 2.05 0 0 1 1.496.608c.41.405.616.904.616 1.496a2.02 2.02 0 0 1-.616 1.496Zm-1.496-.072c.4 0 .736-.136 1.008-.408A1.38 1.38 0 0 0 65.452 15a1.38 1.38 0 0 0-.408-1.016 1.37 1.37 0 0 0-1.008-.408 1.36 1.36 0 0 0-1 .408A1.38 1.38 0 0 0 62.628 15c0 .405.136.744.408 1.016a1.36 1.36 0 0 0 1 .408ZM70.441 13h.696v4h-.696v-.688c-.347.528-.851.792-1.512.792-.56 0-1.038-.203-1.432-.608A2.08 2.08 0 0 1 66.905 15c0-.587.197-1.083.592-1.488.394-.41.872-.616 1.432-.616.661 0 1.165.264 1.512.792V13Zm-1.424 3.432a1.38 1.38 0 0 0 1.016-.408c.272-.277.408-.619.408-1.024a1.38 1.38 0 0 0-.408-1.016 1.365 1.365 0 0 0-1.016-.416c-.4 0-.736.139-1.008.416A1.38 1.38 0 0 0 67.6 15c0 .405.136.747.408 1.024a1.37 1.37 0 0 0 1.008.408Zm6.646-5.032h.696V17h-.696v-.688c-.346.528-.85.792-1.512.792-.56 0-1.037-.203-1.432-.608A2.08 2.08 0 0 1 72.127 15c0-.587.198-1.083.592-1.488.395-.41.872-.616 1.432-.616.662 0 1.166.264 1.512.792V11.4Zm-1.424 5.032a1.38 1.38 0 0 0 1.016-.408c.272-.277.408-.619.408-1.024a1.38 1.38 0 0 0-.408-1.016 1.365 1.365 0 0 0-1.016-.416c-.4 0-.736.139-1.008.416A1.38 1.38 0 0 0 72.823 15c0 .405.136.747.408 1.024a1.37 1.37 0 0 0 1.008.408Zm8.87.064a2.05 2.05 0 0 1-1.495.608 2.05 2.05 0 0 1-1.496-.608A2.033 2.033 0 0 1 79.51 15c0-.592.202-1.09.608-1.496a2.05 2.05 0 0 1 1.496-.608 2.05 2.05 0 0 1 1.496.608c.41.405.616.904.616 1.496a2.02 2.02 0 0 1-.616 1.496Zm-1.495-.072c.4 0 .736-.136 1.008-.408A1.38 1.38 0 0 0 83.03 15a1.38 1.38 0 0 0-.408-1.016 1.37 1.37 0 0 0-1.008-.408 1.36 1.36 0 0 0-1 .408A1.38 1.38 0 0 0 80.206 15c0 .405.136.744.408 1.016a1.36 1.36 0 0 0 1 .408Zm5.084-3.528c.47 0 .846.15 1.128.448.283.293.424.693.424 1.2V17h-.696v-2.416c0-.325-.088-.576-.264-.752-.176-.181-.419-.272-.728-.272-.346 0-.626.11-.84.328-.213.213-.32.544-.32.992V17h-.696v-4h.696v.576c.283-.453.715-.68 1.296-.68Zm7.02.776h-1.064v2.168c0 .197.037.339.112.424.08.08.2.123.36.128.16 0 .357-.005.592-.016V17c-.608.08-1.054.032-1.336-.144-.283-.181-.424-.52-.424-1.016v-2.168h-.792V13h.792v-.912l.696-.208V13h1.064v.672Zm2.976-.776c.47 0 .845.15 1.128.448.282.293.424.693.424 1.2V17h-.696v-2.416c0-.325-.088-.576-.264-.752-.176-.181-.419-.272-.728-.272-.347 0-.627.11-.84.328-.214.213-.32.544-.32.992V17h-.696v-5.6h.696v2.176c.282-.453.714-.68 1.296-.68Zm3.171 2.424c.07.357.232.635.488.832.262.197.582.296.96.296.528 0 .912-.195 1.152-.584l.592.336c-.389.603-.976.904-1.76.904-.634 0-1.152-.197-1.552-.592-.394-.4-.592-.904-.592-1.512 0-.603.195-1.104.584-1.504.39-.4.894-.6 1.512-.6.587 0 1.064.208 1.432.624.374.41.56.907.56 1.488 0 .101-.008.205-.024.312h-3.352Zm1.384-1.768c-.373 0-.682.107-.928.32a1.352 1.352 0 0 0-.456.84h2.672c-.058-.379-.208-.667-.448-.864a1.283 1.283 0 0 0-.84-.296ZM49.016 26.208v.768c0 1.536-.507 2.795-1.52 3.776-1.013.97-2.336 1.456-3.968 1.456-1.728 0-3.157-.56-4.288-1.68-1.12-1.12-1.68-2.496-1.68-4.128 0-1.621.56-2.992 1.68-4.112 1.13-1.13 2.528-1.696 4.192-1.696 1.045 0 2 .24 2.864.72a5.256 5.256 0 0 1 2.016 1.936l-1.584.912c-.299-.533-.741-.96-1.328-1.28a3.938 3.938 0 0 0-1.968-.496c-1.173 0-2.139.384-2.896 1.152-.757.768-1.136 1.728-1.136 2.88s.379 2.107 1.136 2.864c.768.757 1.77 1.136 3.008 1.136.992 0 1.797-.23 2.416-.688a3.084 3.084 0 0 0 1.2-1.872h-3.744v-1.648h5.6Zm5.666 6c-1.173 0-2.17-.405-2.992-1.216-.821-.81-1.232-1.808-1.232-2.992s.41-2.181 1.232-2.992c.822-.81 1.819-1.216 2.992-1.216 1.184 0 2.181.405 2.992 1.216.822.81 1.232 1.808 1.232 2.992s-.41 2.181-1.232 2.992c-.81.81-1.808 1.216-2.992 1.216Zm-1.776-2.4c.48.48 1.072.72 1.776.72s1.296-.24 1.776-.72.72-1.083.72-1.808c0-.725-.24-1.328-.72-1.808s-1.072-.72-1.776-.72-1.296.24-1.776.72-.72 1.083-.72 1.808c0 .725.24 1.328.72 1.808Zm11.659 2.4c-1.174 0-2.171-.405-2.992-1.216-.822-.81-1.232-1.808-1.232-2.992s.41-2.181 1.232-2.992c.821-.81 1.818-1.216 2.992-1.216 1.184 0 2.181.405 2.992 1.216.821.81 1.232 1.808 1.232 2.992s-.411 2.181-1.232 2.992c-.811.81-1.808 1.216-2.992 1.216Zm-1.776-2.4c.48.48 1.072.72 1.776.72s1.296-.24 1.776-.72.72-1.083.72-1.808c0-.725-.24-1.328-.72-1.808s-1.072-.72-1.776-.72-1.296.24-1.776.72-.72 1.083-.72 1.808c0 .725.24 1.328.72 1.808ZM77.039 24h1.696v7.632c0 1.216-.4 2.15-1.2 2.8-.8.65-1.77.976-2.912.976-1.845 0-3.11-.645-3.792-1.936l1.488-.864c.416.821 1.195 1.232 2.336 1.232.747 0 1.328-.197 1.744-.592.427-.384.64-.923.64-1.616v-.976c-.65.928-1.579 1.392-2.784 1.392-1.13 0-2.085-.4-2.864-1.2-.779-.81-1.168-1.787-1.168-2.928s.39-2.112 1.168-2.912c.779-.81 1.733-1.216 2.864-1.216 1.206 0 2.133.464 2.784 1.392V24Zm-4.368 5.712c.49.48 1.099.72 1.824.72.725 0 1.328-.24 1.808-.72.49-.48.736-1.077.736-1.792 0-.715-.245-1.312-.736-1.792-.48-.48-1.082-.72-1.808-.72-.725 0-1.333.24-1.824.72-.48.48-.72 1.077-.72 1.792 0 .715.24 1.312.72 1.792ZM81.07 32V20.32h1.728V32H81.07Zm5.415-3.264c.128.608.421 1.077.88 1.408.458.32 1.018.48 1.68.48.917 0 1.605-.33 2.064-.992l1.424.832c-.79 1.163-1.958 1.744-3.504 1.744-1.302 0-2.352-.395-3.152-1.184-.8-.8-1.2-1.808-1.2-3.024 0-1.195.394-2.192 1.184-2.992.789-.81 1.802-1.216 3.04-1.216 1.173 0 2.133.41 2.88 1.232.757.821 1.136 1.819 1.136 2.992 0 .181-.022.421-.064.72h-6.368Zm-.016-1.408h4.704c-.118-.65-.39-1.141-.816-1.472a2.294 2.294 0 0 0-1.472-.496c-.64 0-1.174.176-1.6.528-.427.352-.699.832-.816 1.44Zm16.848-6.528c1.056 0 1.936.352 2.64 1.056.715.704 1.072 1.579 1.072 2.624 0 1.035-.357 1.91-1.072 2.624-.704.704-1.584 1.056-2.64 1.056h-2.288V32h-1.84V20.8h4.128Zm0 5.632c.544 0 .992-.181 1.344-.544.352-.373.528-.843.528-1.408s-.176-1.03-.528-1.392c-.352-.373-.8-.56-1.344-.56h-2.288v3.904h2.288ZM108.834 32V20.32h1.728V32h-1.728Zm10.39-8h1.728v8h-1.728v-1.152c-.651.907-1.584 1.36-2.8 1.36-1.099 0-2.037-.405-2.816-1.216-.779-.821-1.168-1.819-1.168-2.992 0-1.184.389-2.181 1.168-2.992.779-.81 1.717-1.216 2.816-1.216 1.216 0 2.149.448 2.8 1.344V24Zm-4.336 5.84c.48.48 1.083.72 1.808.72.725 0 1.328-.24 1.808-.72.48-.49.72-1.104.72-1.84s-.24-1.344-.72-1.824c-.48-.49-1.083-.736-1.808-.736-.725 0-1.328.245-1.808.736-.48.48-.72 1.088-.72 1.824s.24 1.35.72 1.84Zm13.79-5.84h1.84l-3.072 8.256c-.768 2.07-2.069 3.05-3.904 2.944v-1.616c.544.032.981-.085 1.312-.352.331-.256.603-.661.816-1.216l.08-.16L122.358 24h1.888l2.384 5.808L128.678 24Z" fill="#fff"/><path fill-rule="evenodd" clip-rule="evenodd" d="M14.356 11.306c-.226.243-.356.613-.356 1.098v17.192c0 .485.13.855.364 1.088l.06.052 9.662-9.633v-.215l-9.67-9.634-.06.052Z" fill="url(#a)"/><path fill-rule="evenodd" clip-rule="evenodd" d="m27.3 24.324-3.223-3.213v-.225l3.223-3.212.07.042 3.812 2.16c1.09.613 1.09 1.625 0 2.245l-3.812 2.16-.07.043Z" fill="url(#b)"/><path fill-rule="evenodd" clip-rule="evenodd" d="M27.37 24.281 24.078 21l-9.722 9.692c.356.38.953.423 1.62.053L27.37 24.28Z" fill="url(#c)"/><path fill-rule="evenodd" clip-rule="evenodd" d="m27.37 17.716-11.394-6.452c-.667-.38-1.266-.328-1.62.052l9.722 9.683 3.292-3.283Z" fill="url(#d)"/><path opacity=".2" fill-rule="evenodd" clip-rule="evenodd" d="m27.3 24.212-11.317 6.41c-.632.362-1.196.337-1.56.007l-.06.06.06.053c.364.327.928.355 1.56-.008l11.395-6.453-.078-.07Z" fill="#000"/><path opacity=".12" fill-rule="evenodd" clip-rule="evenodd" d="m31.182 22.009-3.891 2.203.07.07 3.811-2.16c.547-.31.815-.718.815-1.123-.033.372-.311.725-.805 1.01Z" fill="#000"/><path opacity=".25" fill-rule="evenodd" clip-rule="evenodd" d="m15.976 11.376 15.206 8.613c.494.277.772.64.815 1.01 0-.405-.268-.813-.815-1.123l-15.206-8.612C14.885 10.64 14 11.16 14 12.404v.112c0-1.245.885-1.755 1.976-1.14Z" fill="#fff"/><defs><linearGradient id="a" x1="23.219" y1="12.218" x2="7.749" y2="16.352" gradientUnits="userSpaceOnUse"><stop stop-color="#00A0FF"/><stop offset=".007" stop-color="#00A1FF"/><stop offset=".26" stop-color="#00BEFF"/><stop offset=".512" stop-color="#00D2FF"/><stop offset=".76" stop-color="#00DFFF"/><stop offset="1" stop-color="#00E3FF"/></linearGradient><linearGradient id="b" x1="32.605" y1="20.999" x2="13.735" y2="20.999" gradientUnits="userSpaceOnUse"><stop stop-color="#FFE000"/><stop offset=".409" stop-color="#FFBD00"/><stop offset=".775" stop-color="orange"/><stop offset="1" stop-color="#FF9C00"/></linearGradient><linearGradient id="c" x1="25.58" y1="22.785" x2="13.211" y2="43.666" gradientUnits="userSpaceOnUse"><stop stop-color="#FF3A44"/><stop offset="1" stop-color="#C31162"/></linearGradient><linearGradient id="d" x1="11.908" y1="5.588" x2="17.426" y2="14.914" gradientUnits="userSpaceOnUse"><stop stop-color="#32A071"/><stop offset=".069" stop-color="#2DA771"/><stop offset=".476" stop-color="#15CF74"/><stop offset=".801" stop-color="#06E775"/><stop offset="1" stop-color="#00F076"/></linearGradient></defs></svg>