<svg width="127" height="43" viewBox="0 0 127 43" fill="none" xmlns="http://www.w3.org/2000/svg">
<path d="M118 0H9C4.02944 0 0 4.02944 0 9V34C0 38.9706 4.02944 43 9 43H118C122.971 43 127 38.9706 127 34V9C127 4.02944 122.971 0 118 0Z" fill="black"/>
<path d="M40.784 11.4C41.5467 11.4 42.1787 11.672 42.68 12.216C43.1867 12.7547 43.44 13.416 43.44 14.2C43.44 14.984 43.1867 15.648 42.68 16.192C42.1787 16.7307 41.5467 17 40.784 17H38.6V11.4H40.784ZM40.784 16.296C41.3547 16.296 41.8213 16.096 42.184 15.696C42.5467 15.296 42.728 14.7973 42.728 14.2C42.728 13.6027 42.5467 13.104 42.184 12.704C41.8213 12.304 41.3547 12.104 40.784 12.104H39.344V16.296H40.784ZM47.8062 16.496C47.3955 16.9013 46.8969 17.104 46.3102 17.104C45.7235 17.104 45.2249 16.9013 44.8142 16.496C44.4089 16.0907 44.2062 15.592 44.2062 15C44.2062 14.408 44.4089 13.9093 44.8142 13.504C45.2249 13.0987 45.7235 12.896 46.3102 12.896C46.8969 12.896 47.3955 13.0987 47.8062 13.504C48.2169 13.9093 48.4222 14.408 48.4222 15C48.4222 15.592 48.2169 16.0907 47.8062 16.496ZM46.3102 16.424C46.7102 16.424 47.0462 16.288 47.3182 16.016C47.5902 15.744 47.7262 15.4053 47.7262 15C47.7262 14.5947 47.5902 14.256 47.3182 13.984C47.0462 13.712 46.7102 13.576 46.3102 13.576C45.9155 13.576 45.5822 13.712 45.3102 13.984C45.0382 14.256 44.9022 14.5947 44.9022 15C44.9022 15.4053 45.0382 15.744 45.3102 16.016C45.5822 16.288 45.9155 16.424 46.3102 16.424ZM53.9584 13H54.6864L53.4464 17H52.7344L51.7984 14.04L50.8624 17H50.1504L48.9104 13H49.6384L50.5184 16.04L51.4624 13H52.1344L53.0784 16.048L53.9584 13ZM57.5547 12.896C58.024 12.896 58.4 13.0453 58.6827 13.344C58.9654 13.6373 59.1067 14.0373 59.1067 14.544V17H58.4107V14.584C58.4107 14.2587 58.3227 14.008 58.1467 13.832C57.9707 13.6507 57.728 13.56 57.4187 13.56C57.072 13.56 56.792 13.6693 56.5787 13.888C56.3654 14.1013 56.2587 14.432 56.2587 14.88V17H55.5627V13H56.2587V13.576C56.5414 13.1227 56.9734 12.896 57.5547 12.896ZM60.2383 17V11.16H60.9343V17H60.2383ZM65.5321 16.496C65.1215 16.9013 64.6228 17.104 64.0361 17.104C63.4495 17.104 62.9508 16.9013 62.5401 16.496C62.1348 16.0907 61.9321 15.592 61.9321 15C61.9321 14.408 62.1348 13.9093 62.5401 13.504C62.9508 13.0987 63.4495 12.896 64.0361 12.896C64.6228 12.896 65.1215 13.0987 65.5321 13.504C65.9428 13.9093 66.1481 14.408 66.1481 15C66.1481 15.592 65.9428 16.0907 65.5321 16.496ZM64.0361 16.424C64.4361 16.424 64.7721 16.288 65.0441 16.016C65.3161 15.744 65.4521 15.4053 65.4521 15C65.4521 14.5947 65.3161 14.256 65.0441 13.984C64.7721 13.712 64.4361 13.576 64.0361 13.576C63.6415 13.576 63.3081 13.712 63.0361 13.984C62.7641 14.256 62.6281 14.5947 62.6281 15C62.6281 15.4053 62.7641 15.744 63.0361 16.016C63.3081 16.288 63.6415 16.424 64.0361 16.424ZM70.4406 13H71.1366V17H70.4406V16.312C70.094 16.84 69.59 17.104 68.9286 17.104C68.3686 17.104 67.8913 16.9013 67.4966 16.496C67.102 16.0853 66.9046 15.5867 66.9046 15C66.9046 14.4133 67.102 13.9173 67.4966 13.512C67.8913 13.1013 68.3686 12.896 68.9286 12.896C69.59 12.896 70.094 13.16 70.4406 13.688V13ZM69.0166 16.432C69.422 16.432 69.7606 16.296 70.0326 16.024C70.3046 15.7467 70.4406 15.4053 70.4406 15C70.4406 14.5947 70.3046 14.256 70.0326 13.984C69.7606 13.7067 69.422 13.568 69.0166 13.568C68.6166 13.568 68.2806 13.7067 68.0086 13.984C67.7366 14.256 67.6006 14.5947 67.6006 15C67.6006 15.4053 67.7366 15.7467 68.0086 16.024C68.2806 16.296 68.6166 16.432 69.0166 16.432ZM75.6631 11.4H76.3591V17H75.6631V16.312C75.3165 16.84 74.8125 17.104 74.1511 17.104C73.5911 17.104 73.1138 16.9013 72.7191 16.496C72.3245 16.0853 72.1271 15.5867 72.1271 15C72.1271 14.4133 72.3245 13.9173 72.7191 13.512C73.1138 13.1013 73.5911 12.896 74.1511 12.896C74.8125 12.896 75.3165 13.16 75.6631 13.688V11.4ZM74.2391 16.432C74.6445 16.432 74.9831 16.296 75.2551 16.024C75.5271 15.7467 75.6631 15.4053 75.6631 15C75.6631 14.5947 75.5271 14.256 75.2551 13.984C74.9831 13.7067 74.6445 13.568 74.2391 13.568C73.8391 13.568 73.5031 13.7067 73.2311 13.984C72.9591 14.256 72.8231 14.5947 72.8231 15C72.8231 15.4053 72.9591 15.7467 73.2311 16.024C73.5031 16.296 73.8391 16.432 74.2391 16.432ZM83.1096 16.496C82.699 16.9013 82.2003 17.104 81.6136 17.104C81.027 17.104 80.5283 16.9013 80.1176 16.496C79.7123 16.0907 79.5096 15.592 79.5096 15C79.5096 14.408 79.7123 13.9093 80.1176 13.504C80.5283 13.0987 81.027 12.896 81.6136 12.896C82.2003 12.896 82.699 13.0987 83.1096 13.504C83.5203 13.9093 83.7256 14.408 83.7256 15C83.7256 15.592 83.5203 16.0907 83.1096 16.496ZM81.6136 16.424C82.0136 16.424 82.3496 16.288 82.6216 16.016C82.8936 15.744 83.0296 15.4053 83.0296 15C83.0296 14.5947 82.8936 14.256 82.6216 13.984C82.3496 13.712 82.0136 13.576 81.6136 13.576C81.219 13.576 80.8856 13.712 80.6136 13.984C80.3416 14.256 80.2056 14.5947 80.2056 15C80.2056 15.4053 80.3416 15.744 80.6136 16.016C80.8856 16.288 81.219 16.424 81.6136 16.424ZM86.6981 12.896C87.1675 12.896 87.5435 13.0453 87.8261 13.344C88.1088 13.6373 88.2501 14.0373 88.2501 14.544V17H87.5541V14.584C87.5541 14.2587 87.4661 14.008 87.2901 13.832C87.1141 13.6507 86.8715 13.56 86.5621 13.56C86.2155 13.56 85.9355 13.6693 85.7221 13.888C85.5088 14.1013 85.4021 14.432 85.4021 14.88V17H84.7061V13H85.4021V13.576C85.6848 13.1227 86.1168 12.896 86.6981 12.896ZM93.7177 13.672H92.6537V15.84C92.6537 16.0373 92.6911 16.1787 92.7657 16.264C92.8457 16.344 92.9657 16.3867 93.1257 16.392C93.2857 16.392 93.4831 16.3867 93.7177 16.376V17C93.1097 17.08 92.6644 17.032 92.3817 16.856C92.0991 16.6747 91.9577 16.336 91.9577 15.84V13.672H91.1657V13H91.9577V12.088L92.6537 11.88V13H93.7177V13.672ZM96.6938 12.896C97.1631 12.896 97.5391 13.0453 97.8218 13.344C98.1044 13.6373 98.2458 14.0373 98.2458 14.544V17H97.5498V14.584C97.5498 14.2587 97.4618 14.008 97.2858 13.832C97.1098 13.6507 96.8671 13.56 96.5578 13.56C96.2111 13.56 95.9311 13.6693 95.7178 13.888C95.5044 14.1013 95.3978 14.432 95.3978 14.88V17H94.7018V11.4H95.3978V13.576C95.6804 13.1227 96.1124 12.896 96.6938 12.896ZM99.8654 15.32C99.9347 15.6773 100.097 15.9547 100.353 16.152C100.615 16.3493 100.935 16.448 101.313 16.448C101.841 16.448 102.225 16.2533 102.465 15.864L103.057 16.2C102.668 16.8027 102.081 17.104 101.297 17.104C100.663 17.104 100.145 16.9067 99.7454 16.512C99.3507 16.112 99.1534 15.608 99.1534 15C99.1534 14.3973 99.348 13.896 99.7374 13.496C100.127 13.096 100.631 12.896 101.249 12.896C101.836 12.896 102.313 13.104 102.681 13.52C103.055 13.9307 103.241 14.4267 103.241 15.008C103.241 15.1093 103.233 15.2133 103.217 15.32H99.8654ZM101.249 13.552C100.876 13.552 100.567 13.6587 100.321 13.872C100.076 14.08 99.924 14.36 99.8654 14.712H102.537C102.479 14.3333 102.329 14.0453 102.089 13.848C101.849 13.6507 101.569 13.552 101.249 13.552Z" fill="white"/>
<path d="M45.416 32L44.632 29.744H39.864L39.08 32H37.08L41.144 20.8H43.352L47.4 32H45.416ZM40.472 28.016H44.024L42.248 22.96L40.472 28.016ZM53.3404 23.792C54.439 23.792 55.3777 24.2027 56.1564 25.024C56.935 25.8347 57.3244 26.8267 57.3244 28C57.3244 29.184 56.935 30.1813 56.1564 30.992C55.3777 31.8027 54.439 32.208 53.3404 32.208C52.1244 32.208 51.191 31.76 50.5404 30.864V35.2H48.8124V24H50.5404V25.152C51.191 24.2453 52.1244 23.792 53.3404 23.792ZM51.2604 29.84C51.7404 30.32 52.343 30.56 53.0684 30.56C53.7937 30.56 54.3964 30.32 54.8764 29.84C55.3564 29.3493 55.5964 28.736 55.5964 28C55.5964 27.264 55.3564 26.656 54.8764 26.176C54.3964 25.6853 53.7937 25.44 53.0684 25.44C52.343 25.44 51.7404 25.6853 51.2604 26.176C50.7804 26.656 50.5404 27.264 50.5404 28C50.5404 28.736 50.7804 29.3493 51.2604 29.84ZM63.7385 23.792C64.8372 23.792 65.7758 24.2027 66.5545 25.024C67.3332 25.8347 67.7225 26.8267 67.7225 28C67.7225 29.184 67.3332 30.1813 66.5545 30.992C65.7758 31.8027 64.8372 32.208 63.7385 32.208C62.5225 32.208 61.5892 31.76 60.9385 30.864V35.2H59.2105V24H60.9385V25.152C61.5892 24.2453 62.5225 23.792 63.7385 23.792ZM61.6585 29.84C62.1385 30.32 62.7412 30.56 63.4665 30.56C64.1918 30.56 64.7945 30.32 65.2745 29.84C65.7545 29.3493 65.9945 28.736 65.9945 28C65.9945 27.264 65.7545 26.656 65.2745 26.176C64.7945 25.6853 64.1918 25.44 63.4665 25.44C62.7412 25.44 62.1385 25.6853 61.6585 26.176C61.1785 26.656 60.9385 27.264 60.9385 28C60.9385 28.736 61.1785 29.3493 61.6585 29.84ZM77.7686 32.208C76.6913 32.208 75.774 31.9627 75.0166 31.472C74.27 30.9813 73.7473 30.3093 73.4486 29.456L75.0326 28.528C75.4806 29.7867 76.4086 30.416 77.8166 30.416C78.51 30.416 79.0273 30.2827 79.3686 30.016C79.7206 29.7387 79.8966 29.3813 79.8966 28.944C79.8966 28.4853 79.71 28.1387 79.3366 27.904C78.9633 27.6587 78.302 27.392 77.3526 27.104C76.8193 26.944 76.3873 26.7947 76.0566 26.656C75.726 26.5173 75.374 26.3253 75.0006 26.08C74.638 25.824 74.366 25.5093 74.1846 25.136C74.0033 24.7627 73.9126 24.3253 73.9126 23.824C73.9126 22.832 74.2646 22.048 74.9686 21.472C75.6726 20.8853 76.5206 20.592 77.5126 20.592C78.4086 20.592 79.1926 20.8107 79.8646 21.248C80.5366 21.6853 81.054 22.288 81.4166 23.056L79.8646 23.952C79.3953 22.9067 78.6113 22.384 77.5126 22.384C76.9793 22.384 76.5526 22.512 76.2326 22.768C75.9126 23.0133 75.7526 23.3493 75.7526 23.776C75.7526 24.192 75.9126 24.5227 76.2326 24.768C76.5633 25.0027 77.1553 25.2533 78.0086 25.52C78.4353 25.6587 78.7446 25.7653 78.9366 25.84C79.1393 25.904 79.4166 26.0107 79.7686 26.16C80.1313 26.3093 80.4033 26.4587 80.5846 26.608C80.766 26.7573 80.958 26.944 81.1606 27.168C81.374 27.392 81.5233 27.648 81.6086 27.936C81.694 28.224 81.7366 28.5493 81.7366 28.912C81.7366 29.9253 81.3686 30.7307 80.6326 31.328C79.9073 31.9147 78.9526 32.208 77.7686 32.208ZM87.7595 25.664H85.7755V29.504C85.7755 29.8347 85.8502 30.0747 85.9995 30.224C86.1488 30.3627 86.3675 30.4427 86.6555 30.464C86.9542 30.4747 87.3222 30.4693 87.7595 30.448V32C86.4368 32.16 85.4875 32.048 84.9115 31.664C84.3355 31.2693 84.0475 30.5493 84.0475 29.504V25.664H82.5755V24H84.0475V22.272L85.7755 21.76V24H87.7595V25.664ZM93.0946 32.208C91.9213 32.208 90.924 31.8027 90.1026 30.992C89.2813 30.1813 88.8706 29.184 88.8706 28C88.8706 26.816 89.2813 25.8187 90.1026 25.008C90.924 24.1973 91.9213 23.792 93.0946 23.792C94.2786 23.792 95.276 24.1973 96.0866 25.008C96.908 25.8187 97.3186 26.816 97.3186 28C97.3186 29.184 96.908 30.1813 96.0866 30.992C95.276 31.8027 94.2786 32.208 93.0946 32.208ZM91.3186 29.808C91.7986 30.288 92.3906 30.528 93.0946 30.528C93.7986 30.528 94.3906 30.288 94.8706 29.808C95.3506 29.328 95.5906 28.7253 95.5906 28C95.5906 27.2747 95.3506 26.672 94.8706 26.192C94.3906 25.712 93.7986 25.472 93.0946 25.472C92.3906 25.472 91.7986 25.712 91.3186 26.192C90.8386 26.672 90.5986 27.2747 90.5986 28C90.5986 28.7253 90.8386 29.328 91.3186 29.808ZM100.929 25.344C101.366 24.352 102.188 23.856 103.393 23.856V25.728C102.732 25.6853 102.156 25.8453 101.665 26.208C101.174 26.56 100.929 27.1467 100.929 27.968V32H99.2011V24H100.929V25.344ZM105.975 28.736C106.103 29.344 106.396 29.8133 106.855 30.144C107.314 30.464 107.874 30.624 108.535 30.624C109.452 30.624 110.14 30.2933 110.599 29.632L112.023 30.464C111.234 31.6267 110.066 32.208 108.519 32.208C107.218 32.208 106.167 31.8133 105.367 31.024C104.567 30.224 104.167 29.216 104.167 28C104.167 26.8053 104.562 25.808 105.351 25.008C106.14 24.1973 107.154 23.792 108.391 23.792C109.564 23.792 110.524 24.2027 111.271 25.024C112.028 25.8453 112.407 26.8427 112.407 28.016C112.407 28.1973 112.386 28.4373 112.343 28.736H105.975ZM105.959 27.328H110.663C110.546 26.6773 110.274 26.1867 109.847 25.856C109.431 25.5253 108.94 25.36 108.375 25.36C107.735 25.36 107.202 25.536 106.775 25.888C106.348 26.24 106.076 26.72 105.959 27.328Z" fill="white"/>
<path fill-rule="evenodd" clip-rule="evenodd" d="M27.3912 10C27.4896 11.2772 27.0834 12.5423 26.2589 13.5265C25.8641 14.0148 25.363 14.4077 24.7933 14.6755C24.2237 14.9433 23.6004 15.0791 22.9703 15.0727C22.9301 14.4585 23.0121 13.8424 23.2114 13.2597C23.4108 12.677 23.7237 12.1391 24.1323 11.6767C24.968 10.7302 26.1315 10.1316 27.3912 10ZM29.6888 19.2961C29.2702 20.0295 29.045 20.8563 29.0341 21.6995C29.0351 22.6481 29.3169 23.5753 29.8443 24.3657C30.3717 25.156 31.1215 25.7745 32 26.144C31.6546 27.2598 31.1339 28.3142 30.4573 29.2683C29.5486 30.62 28.5958 31.9405 27.0837 31.9649C26.3645 31.9814 25.879 31.7758 25.3731 31.5615C24.8455 31.338 24.2956 31.1051 23.4352 31.1051C22.5227 31.1051 21.9482 31.3455 21.3942 31.5773C20.9154 31.7777 20.4518 31.9717 19.7985 31.9987C18.3584 32.0517 17.2578 30.556 16.3161 29.217C14.4338 26.4825 12.9681 21.5109 14.9331 18.128C15.3867 17.3174 16.0437 16.6375 16.8401 16.1546C17.6366 15.6716 18.5452 15.402 19.4776 15.372C20.2943 15.3553 21.0781 15.6684 21.7653 15.9428C22.2908 16.1527 22.7598 16.34 23.1438 16.34C23.4814 16.34 23.9373 16.1601 24.4686 15.9504C25.3056 15.6201 26.3297 15.2159 27.3733 15.3249C28.1731 15.3497 28.956 15.5597 29.66 15.9381C30.3639 16.3165 30.9694 16.8529 31.4283 17.5047C30.7058 17.9464 30.1075 18.5626 29.6888 19.2961Z" fill="white"/>
</svg>
