<svg width="145" height="43" viewBox="0 0 145 43" fill="none" xmlns="http://www.w3.org/2000/svg">
<path d="M136 0H9C4.02944 0 0 4.02944 0 9V34C0 38.9706 4.02944 43 9 43H136C140.971 43 145 38.9706 145 34V9C145 4.02944 140.971 0 136 0Z" fill="black"/>
<path d="M40.784 11.4C41.5467 11.4 42.1787 11.672 42.68 12.216C43.1867 12.7547 43.44 13.416 43.44 14.2C43.44 14.984 43.1867 15.648 42.68 16.192C42.1787 16.7307 41.5467 17 40.784 17H38.6V11.4H40.784ZM40.784 16.296C41.3547 16.296 41.8213 16.096 42.184 15.696C42.5467 15.296 42.728 14.7973 42.728 14.2C42.728 13.6027 42.5467 13.104 42.184 12.704C41.8213 12.304 41.3547 12.104 40.784 12.104H39.344V16.296H40.784ZM47.8062 16.496C47.3955 16.9013 46.8969 17.104 46.3102 17.104C45.7235 17.104 45.2249 16.9013 44.8142 16.496C44.4089 16.0907 44.2062 15.592 44.2062 15C44.2062 14.408 44.4089 13.9093 44.8142 13.504C45.2249 13.0987 45.7235 12.896 46.3102 12.896C46.8969 12.896 47.3955 13.0987 47.8062 13.504C48.2169 13.9093 48.4222 14.408 48.4222 15C48.4222 15.592 48.2169 16.0907 47.8062 16.496ZM46.3102 16.424C46.7102 16.424 47.0462 16.288 47.3182 16.016C47.5902 15.744 47.7262 15.4053 47.7262 15C47.7262 14.5947 47.5902 14.256 47.3182 13.984C47.0462 13.712 46.7102 13.576 46.3102 13.576C45.9155 13.576 45.5822 13.712 45.3102 13.984C45.0382 14.256 44.9022 14.5947 44.9022 15C44.9022 15.4053 45.0382 15.744 45.3102 16.016C45.5822 16.288 45.9155 16.424 46.3102 16.424ZM53.9584 13H54.6864L53.4464 17H52.7344L51.7984 14.04L50.8624 17H50.1504L48.9104 13H49.6384L50.5184 16.04L51.4624 13H52.1344L53.0784 16.048L53.9584 13ZM57.5547 12.896C58.024 12.896 58.4 13.0453 58.6827 13.344C58.9654 13.6373 59.1067 14.0373 59.1067 14.544V17H58.4107V14.584C58.4107 14.2587 58.3227 14.008 58.1467 13.832C57.9707 13.6507 57.728 13.56 57.4187 13.56C57.072 13.56 56.792 13.6693 56.5787 13.888C56.3654 14.1013 56.2587 14.432 56.2587 14.88V17H55.5627V13H56.2587V13.576C56.5414 13.1227 56.9734 12.896 57.5547 12.896ZM60.2383 17V11.16H60.9343V17H60.2383ZM65.5321 16.496C65.1215 16.9013 64.6228 17.104 64.0361 17.104C63.4495 17.104 62.9508 16.9013 62.5401 16.496C62.1348 16.0907 61.9321 15.592 61.9321 15C61.9321 14.408 62.1348 13.9093 62.5401 13.504C62.9508 13.0987 63.4495 12.896 64.0361 12.896C64.6228 12.896 65.1215 13.0987 65.5321 13.504C65.9428 13.9093 66.1481 14.408 66.1481 15C66.1481 15.592 65.9428 16.0907 65.5321 16.496ZM64.0361 16.424C64.4361 16.424 64.7721 16.288 65.0441 16.016C65.3161 15.744 65.4521 15.4053 65.4521 15C65.4521 14.5947 65.3161 14.256 65.0441 13.984C64.7721 13.712 64.4361 13.576 64.0361 13.576C63.6415 13.576 63.3081 13.712 63.0361 13.984C62.7641 14.256 62.6281 14.5947 62.6281 15C62.6281 15.4053 62.7641 15.744 63.0361 16.016C63.3081 16.288 63.6415 16.424 64.0361 16.424ZM70.4406 13H71.1366V17H70.4406V16.312C70.094 16.84 69.59 17.104 68.9286 17.104C68.3686 17.104 67.8913 16.9013 67.4966 16.496C67.102 16.0853 66.9046 15.5867 66.9046 15C66.9046 14.4133 67.102 13.9173 67.4966 13.512C67.8913 13.1013 68.3686 12.896 68.9286 12.896C69.59 12.896 70.094 13.16 70.4406 13.688V13ZM69.0166 16.432C69.422 16.432 69.7606 16.296 70.0326 16.024C70.3046 15.7467 70.4406 15.4053 70.4406 15C70.4406 14.5947 70.3046 14.256 70.0326 13.984C69.7606 13.7067 69.422 13.568 69.0166 13.568C68.6166 13.568 68.2806 13.7067 68.0086 13.984C67.7366 14.256 67.6006 14.5947 67.6006 15C67.6006 15.4053 67.7366 15.7467 68.0086 16.024C68.2806 16.296 68.6166 16.432 69.0166 16.432ZM75.6631 11.4H76.3591V17H75.6631V16.312C75.3165 16.84 74.8125 17.104 74.1511 17.104C73.5911 17.104 73.1138 16.9013 72.7191 16.496C72.3245 16.0853 72.1271 15.5867 72.1271 15C72.1271 14.4133 72.3245 13.9173 72.7191 13.512C73.1138 13.1013 73.5911 12.896 74.1511 12.896C74.8125 12.896 75.3165 13.16 75.6631 13.688V11.4ZM74.2391 16.432C74.6445 16.432 74.9831 16.296 75.2551 16.024C75.5271 15.7467 75.6631 15.4053 75.6631 15C75.6631 14.5947 75.5271 14.256 75.2551 13.984C74.9831 13.7067 74.6445 13.568 74.2391 13.568C73.8391 13.568 73.5031 13.7067 73.2311 13.984C72.9591 14.256 72.8231 14.5947 72.8231 15C72.8231 15.4053 72.9591 15.7467 73.2311 16.024C73.5031 16.296 73.8391 16.432 74.2391 16.432ZM83.1096 16.496C82.699 16.9013 82.2003 17.104 81.6136 17.104C81.027 17.104 80.5283 16.9013 80.1176 16.496C79.7123 16.0907 79.5096 15.592 79.5096 15C79.5096 14.408 79.7123 13.9093 80.1176 13.504C80.5283 13.0987 81.027 12.896 81.6136 12.896C82.2003 12.896 82.699 13.0987 83.1096 13.504C83.5203 13.9093 83.7256 14.408 83.7256 15C83.7256 15.592 83.5203 16.0907 83.1096 16.496ZM81.6136 16.424C82.0136 16.424 82.3496 16.288 82.6216 16.016C82.8936 15.744 83.0296 15.4053 83.0296 15C83.0296 14.5947 82.8936 14.256 82.6216 13.984C82.3496 13.712 82.0136 13.576 81.6136 13.576C81.219 13.576 80.8856 13.712 80.6136 13.984C80.3416 14.256 80.2056 14.5947 80.2056 15C80.2056 15.4053 80.3416 15.744 80.6136 16.016C80.8856 16.288 81.219 16.424 81.6136 16.424ZM86.6981 12.896C87.1675 12.896 87.5435 13.0453 87.8261 13.344C88.1088 13.6373 88.2501 14.0373 88.2501 14.544V17H87.5541V14.584C87.5541 14.2587 87.4661 14.008 87.2901 13.832C87.1141 13.6507 86.8715 13.56 86.5621 13.56C86.2155 13.56 85.9355 13.6693 85.7221 13.888C85.5088 14.1013 85.4021 14.432 85.4021 14.88V17H84.7061V13H85.4021V13.576C85.6848 13.1227 86.1168 12.896 86.6981 12.896ZM93.7177 13.672H92.6537V15.84C92.6537 16.0373 92.6911 16.1787 92.7657 16.264C92.8457 16.344 92.9657 16.3867 93.1257 16.392C93.2857 16.392 93.4831 16.3867 93.7177 16.376V17C93.1097 17.08 92.6644 17.032 92.3817 16.856C92.0991 16.6747 91.9577 16.336 91.9577 15.84V13.672H91.1657V13H91.9577V12.088L92.6537 11.88V13H93.7177V13.672ZM96.6938 12.896C97.1631 12.896 97.5391 13.0453 97.8218 13.344C98.1044 13.6373 98.2458 14.0373 98.2458 14.544V17H97.5498V14.584C97.5498 14.2587 97.4618 14.008 97.2858 13.832C97.1098 13.6507 96.8671 13.56 96.5578 13.56C96.2111 13.56 95.9311 13.6693 95.7178 13.888C95.5044 14.1013 95.3978 14.432 95.3978 14.88V17H94.7018V11.4H95.3978V13.576C95.6804 13.1227 96.1124 12.896 96.6938 12.896ZM99.8654 15.32C99.9347 15.6773 100.097 15.9547 100.353 16.152C100.615 16.3493 100.935 16.448 101.313 16.448C101.841 16.448 102.225 16.2533 102.465 15.864L103.057 16.2C102.668 16.8027 102.081 17.104 101.297 17.104C100.663 17.104 100.145 16.9067 99.7454 16.512C99.3507 16.112 99.1534 15.608 99.1534 15C99.1534 14.3973 99.348 13.896 99.7374 13.496C100.127 13.096 100.631 12.896 101.249 12.896C101.836 12.896 102.313 13.104 102.681 13.52C103.055 13.9307 103.241 14.4267 103.241 15.008C103.241 15.1093 103.233 15.2133 103.217 15.32H99.8654ZM101.249 13.552C100.876 13.552 100.567 13.6587 100.321 13.872C100.076 14.08 99.924 14.36 99.8654 14.712H102.537C102.479 14.3333 102.329 14.0453 102.089 13.848C101.849 13.6507 101.569 13.552 101.249 13.552Z" fill="white"/>
<path d="M49.016 26.2079V26.9759C49.016 28.5119 48.5093 29.7706 47.496 30.7519C46.4827 31.7226 45.16 32.2079 43.528 32.2079C41.8 32.2079 40.3707 31.6479 39.24 30.5279C38.12 29.4079 37.56 28.0319 37.56 26.3999C37.56 24.7786 38.12 23.4079 39.24 22.2879C40.3707 21.1572 41.768 20.5919 43.432 20.5919C44.4773 20.5919 45.432 20.8319 46.296 21.3119C47.16 21.7919 47.832 22.4372 48.312 23.2479L46.728 24.1599C46.4293 23.6266 45.9867 23.1999 45.4 22.8799C44.8133 22.5492 44.1573 22.3839 43.432 22.3839C42.2587 22.3839 41.2933 22.7679 40.536 23.5359C39.7787 24.3039 39.4 25.2639 39.4 26.4159C39.4 27.5679 39.7787 28.5226 40.536 29.2799C41.304 30.0372 42.3067 30.4159 43.544 30.4159C44.536 30.4159 45.3413 30.1866 45.96 29.7279C46.5893 29.2586 46.9893 28.6346 47.16 27.8559H43.416V26.2079H49.016ZM54.6821 32.2079C53.5088 32.2079 52.5115 31.8026 51.6901 30.9919C50.8688 30.1812 50.4581 29.1839 50.4581 27.9999C50.4581 26.8159 50.8688 25.8186 51.6901 25.0079C52.5115 24.1972 53.5088 23.7919 54.6821 23.7919C55.8661 23.7919 56.8635 24.1972 57.6741 25.0079C58.4955 25.8186 58.9061 26.8159 58.9061 27.9999C58.9061 29.1839 58.4955 30.1812 57.6741 30.9919C56.8635 31.8026 55.8661 32.2079 54.6821 32.2079ZM52.9061 29.8079C53.3861 30.2879 53.9781 30.5279 54.6821 30.5279C55.3861 30.5279 55.9781 30.2879 56.4581 29.8079C56.9381 29.3279 57.1781 28.7252 57.1781 27.9999C57.1781 27.2746 56.9381 26.6719 56.4581 26.1919C55.9781 25.7119 55.3861 25.4719 54.6821 25.4719C53.9781 25.4719 53.3861 25.7119 52.9061 26.1919C52.4261 26.6719 52.1861 27.2746 52.1861 27.9999C52.1861 28.7252 52.4261 29.3279 52.9061 29.8079ZM64.5646 32.2079C63.3913 32.2079 62.394 31.8026 61.5726 30.9919C60.7513 30.1812 60.3406 29.1839 60.3406 27.9999C60.3406 26.8159 60.7513 25.8186 61.5726 25.0079C62.394 24.1972 63.3913 23.7919 64.5646 23.7919C65.7486 23.7919 66.746 24.1972 67.5566 25.0079C68.378 25.8186 68.7886 26.8159 68.7886 27.9999C68.7886 29.1839 68.378 30.1812 67.5566 30.9919C66.746 31.8026 65.7486 32.2079 64.5646 32.2079ZM62.7886 29.8079C63.2686 30.2879 63.8606 30.5279 64.5646 30.5279C65.2686 30.5279 65.8606 30.2879 66.3406 29.8079C66.8206 29.3279 67.0606 28.7252 67.0606 27.9999C67.0606 27.2746 66.8206 26.6719 66.3406 26.1919C65.8606 25.7119 65.2686 25.4719 64.5646 25.4719C63.8606 25.4719 63.2686 25.7119 62.7886 26.1919C62.3086 26.6719 62.0686 27.2746 62.0686 27.9999C62.0686 28.7252 62.3086 29.3279 62.7886 29.8079ZM77.0391 23.9999H78.7351V31.6319C78.7351 32.8479 78.3351 33.7812 77.5351 34.4319C76.7351 35.0826 75.7645 35.4079 74.6231 35.4079C72.7778 35.4079 71.5138 34.7626 70.8311 33.4719L72.3191 32.6079C72.7351 33.4292 73.5138 33.8399 74.6551 33.8399C75.4018 33.8399 75.9831 33.6426 76.3991 33.2479C76.8258 32.8639 77.0391 32.3252 77.0391 31.6319V30.6559C76.3885 31.5839 75.4605 32.0479 74.2551 32.0479C73.1245 32.0479 72.1698 31.6479 71.3911 30.8479C70.6125 30.0372 70.2231 29.0612 70.2231 27.9199C70.2231 26.7786 70.6125 25.8079 71.3911 25.0079C72.1698 24.1972 73.1245 23.7919 74.2551 23.7919C75.4605 23.7919 76.3885 24.2559 77.0391 25.1839V23.9999ZM72.6711 29.7119C73.1618 30.1919 73.7698 30.4319 74.4951 30.4319C75.2205 30.4319 75.8231 30.1919 76.3031 29.7119C76.7938 29.2319 77.0391 28.6346 77.0391 27.9199C77.0391 27.2052 76.7938 26.6079 76.3031 26.1279C75.8231 25.6479 75.2205 25.4079 74.4951 25.4079C73.7698 25.4079 73.1618 25.6479 72.6711 26.1279C72.1911 26.6079 71.9511 27.2052 71.9511 27.9199C71.9511 28.6346 72.1911 29.2319 72.6711 29.7119ZM81.0692 31.9999V20.3199H82.7972V31.9999H81.0692ZM86.4836 28.7359C86.6116 29.3439 86.905 29.8132 87.3636 30.1439C87.8223 30.4639 88.3823 30.6239 89.0436 30.6239C89.961 30.6239 90.649 30.2932 91.1076 29.6319L92.5316 30.4639C91.7423 31.6266 90.5743 32.2079 89.0276 32.2079C87.7263 32.2079 86.6756 31.8132 85.8756 31.0239C85.0756 30.2239 84.6756 29.2159 84.6756 27.9999C84.6756 26.8052 85.0703 25.8079 85.8596 25.0079C86.649 24.1972 87.6623 23.7919 88.8996 23.7919C90.073 23.7919 91.033 24.2026 91.7796 25.0239C92.537 25.8452 92.9156 26.8426 92.9156 28.0159C92.9156 28.1972 92.8943 28.4372 92.8516 28.7359H86.4836ZM86.4676 27.3279H91.1716C91.0543 26.6772 90.7823 26.1866 90.3556 25.8559C89.9396 25.5252 89.449 25.3599 88.8836 25.3599C88.2436 25.3599 87.7103 25.5359 87.2836 25.8879C86.857 26.2399 86.585 26.7199 86.4676 27.3279ZM103.316 20.7999C104.372 20.7999 105.252 21.1519 105.956 21.8559C106.671 22.5599 107.028 23.4346 107.028 24.4799C107.028 25.5146 106.671 26.3892 105.956 27.1039C105.252 27.8079 104.372 28.1599 103.316 28.1599H101.028V31.9999H99.1881V20.7999H103.316ZM103.316 26.4319C103.86 26.4319 104.308 26.2506 104.66 25.8879C105.012 25.5146 105.188 25.0452 105.188 24.4799C105.188 23.9146 105.012 23.4506 104.66 23.0879C104.308 22.7146 103.86 22.5279 103.316 22.5279H101.028V26.4319H103.316ZM108.834 31.9999V20.3199H110.562V31.9999H108.834ZM119.224 23.9999H120.952V31.9999H119.224V30.8479C118.573 31.7546 117.64 32.2079 116.424 32.2079C115.325 32.2079 114.387 31.8026 113.608 30.9919C112.829 30.1706 112.44 29.1732 112.44 27.9999C112.44 26.8159 112.829 25.8186 113.608 25.0079C114.387 24.1972 115.325 23.7919 116.424 23.7919C117.64 23.7919 118.573 24.2399 119.224 25.1359V23.9999ZM114.888 29.8399C115.368 30.3199 115.971 30.5599 116.696 30.5599C117.421 30.5599 118.024 30.3199 118.504 29.8399C118.984 29.3492 119.224 28.7359 119.224 27.9999C119.224 27.2639 118.984 26.6559 118.504 26.1759C118.024 25.6852 117.421 25.4399 116.696 25.4399C115.971 25.4399 115.368 25.6852 114.888 26.1759C114.408 26.6559 114.168 27.2639 114.168 27.9999C114.168 28.7359 114.408 29.3492 114.888 29.8399ZM128.678 23.9999H130.518L127.446 32.2559C126.678 34.3252 125.377 35.3066 123.542 35.1999V33.5839C124.086 33.6159 124.523 33.4986 124.854 33.2319C125.185 32.9759 125.457 32.5706 125.67 32.0159L125.75 31.8559L122.358 23.9999H124.246L126.63 29.8079L128.678 23.9999Z" fill="white"/>
<path fill-rule="evenodd" clip-rule="evenodd" d="M14.3559 11.3061C14.1303 11.5485 14 11.9188 14 12.4036V29.5958C14 30.0806 14.1303 30.4509 14.3637 30.6836L14.424 30.7359L24.0856 21.1034V20.8882L14.4162 11.2538L14.3559 11.3061Z" fill="url(#paint0_linear_108_13)"/>
<path fill-rule="evenodd" clip-rule="evenodd" d="M27.3 24.3239L24.0775 21.1111V20.8862L27.3 17.6735L27.37 17.7161L31.1818 19.8761C32.2728 20.4888 32.2728 21.5009 31.1818 22.1213L27.37 24.2813L27.3 24.3239Z" fill="url(#paint1_linear_108_13)"/>
<path fill-rule="evenodd" clip-rule="evenodd" d="M27.3701 24.2813L24.0776 20.9988L14.3557 30.6914C14.7116 31.0714 15.3086 31.114 15.9757 30.7437L27.3701 24.2813Z" fill="url(#paint2_linear_108_13)"/>
<path fill-rule="evenodd" clip-rule="evenodd" d="M27.3701 17.7163L15.9757 11.2636C15.3086 10.8836 14.7097 10.9359 14.3557 11.316L24.0776 20.9989L27.3701 17.7163Z" fill="url(#paint3_linear_108_13)"/>
<path opacity="0.2" fill-rule="evenodd" clip-rule="evenodd" d="M27.3 24.2115L15.9834 30.6215C15.3513 30.9841 14.7874 30.9589 14.4237 30.6293L14.3634 30.6894L14.4237 30.7418C14.7874 31.0694 15.3513 31.0966 15.9834 30.734L27.3778 24.2813L27.3 24.2115Z" fill="black"/>
<path opacity="0.12" fill-rule="evenodd" clip-rule="evenodd" d="M31.182 22.0089L27.2905 24.2115L27.3605 24.2813L31.1723 22.1214C31.7188 21.8112 31.9871 21.404 31.9871 20.9988C31.9541 21.371 31.676 21.7239 31.182 22.0089Z" fill="black"/>
<path opacity="0.25" fill-rule="evenodd" clip-rule="evenodd" d="M15.9759 11.376L31.182 19.9887C31.676 20.2659 31.9541 20.6285 31.9969 20.9988C31.9969 20.5936 31.7285 20.1864 31.182 19.8762L15.9759 11.2636C14.8849 10.6412 14 11.1608 14 12.4037V12.5161C14 11.2713 14.8849 10.7614 15.9759 11.376Z" fill="white"/>
<defs>
<linearGradient id="paint0_linear_108_13" x1="23.2189" y1="12.2181" x2="7.74893" y2="16.3525" gradientUnits="userSpaceOnUse">
<stop stop-color="#00A0FF"/>
<stop offset="0.00657" stop-color="#00A1FF"/>
<stop offset="0.2601" stop-color="#00BEFF"/>
<stop offset="0.5122" stop-color="#00D2FF"/>
<stop offset="0.7604" stop-color="#00DFFF"/>
<stop offset="1" stop-color="#00E3FF"/>
</linearGradient>
<linearGradient id="paint1_linear_108_13" x1="32.6046" y1="20.9987" x2="13.7345" y2="20.9987" gradientUnits="userSpaceOnUse">
<stop stop-color="#FFE000"/>
<stop offset="0.4087" stop-color="#FFBD00"/>
<stop offset="0.7754" stop-color="#FFA500"/>
<stop offset="1" stop-color="#FF9C00"/>
</linearGradient>
<linearGradient id="paint2_linear_108_13" x1="25.5798" y1="22.785" x2="13.2109" y2="43.6657" gradientUnits="userSpaceOnUse">
<stop stop-color="#FF3A44"/>
<stop offset="1" stop-color="#C31162"/>
</linearGradient>
<linearGradient id="paint3_linear_108_13" x1="11.9076" y1="5.58784" x2="17.4259" y2="14.9135" gradientUnits="userSpaceOnUse">
<stop stop-color="#32A071"/>
<stop offset="0.0685" stop-color="#2DA771"/>
<stop offset="0.4762" stop-color="#15CF74"/>
<stop offset="0.8009" stop-color="#06E775"/>
<stop offset="1" stop-color="#00F076"/>
</linearGradient>
</defs>
</svg>
